<?xml version="1.0" encoding="UTF-8" standalone="no"?>
<!DOCTYPE svg PUBLIC "-//W3C//DTD SVG 1.1//EN"
 "http://www.w3.org/Graphics/SVG/1.1/DTD/svg11.dtd">
<!-- Generated by graphviz version 2.43.0 (0)
 -->
<!-- Title: %3 Pages: 1 -->
<svg width="1785pt" height="548pt"
 viewBox="0.00 0.00 1785.00 548.00" xmlns="http://www.w3.org/2000/svg" xmlns:xlink="http://www.w3.org/1999/xlink">
<g id="graph0" class="graph" transform="scale(1 1) rotate(0) translate(4 544)">
<title>%3</title>
<polygon fill="white" stroke="transparent" points="-4,4 -4,-544 1781,-544 1781,4 -4,4"/>
<!-- [root] aws_eip.pub_a (expand) -->
<g id="node1" class="node">
<title>[root] aws_eip.pub_a (expand)</title>
<polygon fill="none" stroke="black" points="996.5,-108 877.5,-108 877.5,-72 996.5,-72 996.5,-108"/>
<text text-anchor="middle" x="937" y="-86.3" font-family="Times,serif" font-size="14.00">aws_eip.pub_a</text>
</g>
<!-- [root] provider[&quot;registry.terraform.io/hashicorp/aws&quot;] -->
<g id="node21" class="node">
<title>[root] provider[&quot;registry.terraform.io/hashicorp/aws&quot;]</title>
<polygon fill="none" stroke="black" points="1121,-36 795.74,-18 1121,0 1446.26,-18 1121,-36"/>
<text text-anchor="middle" x="1121" y="-14.3" font-family="Times,serif" font-size="14.00">provider[&quot;registry.terraform.io/hashicorp/aws&quot;]</text>
</g>
<!-- [root] aws_eip.pub_a (expand)&#45;&gt;[root] provider[&quot;registry.terraform.io/hashicorp/aws&quot;] -->
<g id="edge1" class="edge">
<title>[root] aws_eip.pub_a (expand)&#45;&gt;[root] provider[&quot;registry.terraform.io/hashicorp/aws&quot;]</title>
<path fill="none" stroke="black" d="M982.01,-71.88C1009.33,-61.48 1044.19,-48.22 1072.17,-37.58"/>
<polygon fill="black" stroke="black" points="1073.66,-40.76 1081.76,-33.93 1071.17,-34.21 1073.66,-40.76"/>
</g>
<!-- [root] aws_instance.web_pri (expand) -->
<g id="node2" class="node">
<title>[root] aws_instance.web_pri (expand)</title>
<polygon fill="none" stroke="black" points="1245,-324 1073,-324 1073,-288 1245,-288 1245,-324"/>
<text text-anchor="middle" x="1159" y="-302.3" font-family="Times,serif" font-size="14.00">aws_instance.web_pri</text>
</g>
<!-- [root] aws_key_pair.mykey (expand) -->
<g id="node5" class="node">
<title>[root] aws_key_pair.mykey (expand)</title>
<polygon fill="none" stroke="black" points="1433.5,-252 1272.5,-252 1272.5,-216 1433.5,-216 1433.5,-252"/>
<text text-anchor="middle" x="1353" y="-230.3" font-family="Times,serif" font-size="14.00">aws_key_pair.mykey</text>
</g>
<!-- [root] aws_instance.web_pri (expand)&#45;&gt;[root] aws_key_pair.mykey (expand) -->
<g id="edge2" class="edge">
<title>[root] aws_instance.web_pri (expand)&#45;&gt;[root] aws_key_pair.mykey (expand)</title>
<path fill="none" stroke="black" d="M1206.46,-287.88C1233.57,-278.09 1267.74,-265.77 1296.26,-255.47"/>
<polygon fill="black" stroke="black" points="1297.48,-258.75 1305.7,-252.07 1295.1,-252.17 1297.48,-258.75"/>
</g>
<!-- [root] aws_nat_gateway.nat (expand) -->
<g id="node6" class="node">
<title>[root] aws_nat_gateway.nat (expand)</title>
<polygon fill="none" stroke="black" points="564.5,-252 397.5,-252 397.5,-216 564.5,-216 564.5,-252"/>
<text text-anchor="middle" x="481" y="-230.3" font-family="Times,serif" font-size="14.00">aws_nat_gateway.nat</text>
</g>
<!-- [root] aws_instance.web_pri (expand)&#45;&gt;[root] aws_nat_gateway.nat (expand) -->
<g id="edge3" class="edge">
<title>[root] aws_instance.web_pri (expand)&#45;&gt;[root] aws_nat_gateway.nat (expand)</title>
<path fill="none" stroke="black" d="M1072.68,-293.88C1055.25,-291.79 1037.05,-289.73 1020,-288 825,-268.23 772.33,-277.81 574.81,-252.17"/>
<polygon fill="black" stroke="black" points="575.05,-248.67 564.68,-250.84 574.14,-255.61 575.05,-248.67"/>
</g>
<!-- [root] aws_security_group.web (expand) -->
<g id="node14" class="node">
<title>[root] aws_security_group.web (expand)</title>
<polygon fill="none" stroke="black" points="1095.5,-252 904.5,-252 904.5,-216 1095.5,-216 1095.5,-252"/>
<text text-anchor="middle" x="1000" y="-230.3" font-family="Times,serif" font-size="14.00">aws_security_group.web</text>
</g>
<!-- [root] aws_instance.web_pri (expand)&#45;&gt;[root] aws_security_group.web (expand) -->
<g id="edge4" class="edge">
<title>[root] aws_instance.web_pri (expand)&#45;&gt;[root] aws_security_group.web (expand)</title>
<path fill="none" stroke="black" d="M1120.1,-287.88C1098.37,-278.31 1071.1,-266.3 1048.04,-256.15"/>
<polygon fill="black" stroke="black" points="1049.33,-252.89 1038.77,-252.07 1046.51,-259.3 1049.33,-252.89"/>
</g>
<!-- [root] aws_subnet.pri_c (expand) -->
<g id="node16" class="node">
<title>[root] aws_subnet.pri_c (expand)</title>
<polygon fill="none" stroke="black" points="721.5,-252 582.5,-252 582.5,-216 721.5,-216 721.5,-252"/>
<text text-anchor="middle" x="652" y="-230.3" font-family="Times,serif" font-size="14.00">aws_subnet.pri_c</text>
</g>
<!-- [root] aws_instance.web_pri (expand)&#45;&gt;[root] aws_subnet.pri_c (expand) -->
<g id="edge5" class="edge">
<title>[root] aws_instance.web_pri (expand)&#45;&gt;[root] aws_subnet.pri_c (expand)</title>
<path fill="none" stroke="black" d="M1072.98,-294.44C962.16,-280.83 778.95,-258.29 731.85,-251.83"/>
<polygon fill="black" stroke="black" points="732.12,-248.34 721.72,-250.35 731.11,-255.26 732.12,-248.34"/>
</g>
<!-- [root] data.aws_ami.amzonlinux (expand) -->
<g id="node20" class="node">
<title>[root] data.aws_ami.amzonlinux (expand)</title>
<polygon fill="none" stroke="black" points="1777,-252 1577,-252 1577,-216 1777,-216 1777,-252"/>
<text text-anchor="middle" x="1677" y="-230.3" font-family="Times,serif" font-size="14.00">data.aws_ami.amzonlinux</text>
</g>
<!-- [root] aws_instance.web_pri (expand)&#45;&gt;[root] data.aws_ami.amzonlinux (expand) -->
<g id="edge6" class="edge">
<title>[root] aws_instance.web_pri (expand)&#45;&gt;[root] data.aws_ami.amzonlinux (expand)</title>
<path fill="none" stroke="black" d="M1245.17,-289.34C1248.15,-288.87 1251.1,-288.43 1254,-288 1389.73,-268.1 1427.06,-270.69 1566.71,-252.14"/>
<polygon fill="black" stroke="black" points="1567.49,-255.57 1576.94,-250.77 1566.56,-248.63 1567.49,-255.57"/>
</g>
<!-- [root] var.image_id -->
<g id="node22" class="node">
<title>[root] var.image_id</title>
<polygon fill="none" stroke="black" points="1552.5,-252 1451.5,-252 1451.5,-216 1558.5,-216 1558.5,-246 1552.5,-252"/>
<polyline fill="none" stroke="black" points="1552.5,-252 1552.5,-246 "/>
<polyline fill="none" stroke="black" points="1558.5,-246 1552.5,-246 "/>
<text text-anchor="middle" x="1505" y="-230.3" font-family="Times,serif" font-size="14.00">var.image_id</text>
</g>
<!-- [root] aws_instance.web_pri (expand)&#45;&gt;[root] var.image_id -->
<g id="edge7" class="edge">
<title>[root] aws_instance.web_pri (expand)&#45;&gt;[root] var.image_id</title>
<path fill="none" stroke="black" d="M1245.33,-289.26C1314.22,-276.65 1404.14,-260.05 1441.21,-252.23"/>
<polygon fill="black" stroke="black" points="1442.28,-255.58 1451.3,-250.02 1440.78,-248.74 1442.28,-255.58"/>
</g>
<!-- [root] var.instance_type -->
<g id="node23" class="node">
<title>[root] var.instance_type</title>
<polygon fill="none" stroke="black" points="1248.5,-252 1113.5,-252 1113.5,-216 1254.5,-216 1254.5,-246 1248.5,-252"/>
<polyline fill="none" stroke="black" points="1248.5,-252 1248.5,-246 "/>
<polyline fill="none" stroke="black" points="1254.5,-246 1248.5,-246 "/>
<text text-anchor="middle" x="1184" y="-230.3" font-family="Times,serif" font-size="14.00">var.instance_type</text>
</g>
<!-- [root] aws_instance.web_pri (expand)&#45;&gt;[root] var.instance_type -->
<g id="edge8" class="edge">
<title>[root] aws_instance.web_pri (expand)&#45;&gt;[root] var.instance_type</title>
<path fill="none" stroke="black" d="M1165.18,-287.7C1168,-279.81 1171.39,-270.3 1174.52,-261.55"/>
<polygon fill="black" stroke="black" points="1177.82,-262.7 1177.89,-252.1 1171.23,-260.34 1177.82,-262.7"/>
</g>
<!-- [root] aws_instance.web_pub (expand) -->
<g id="node3" class="node">
<title>[root] aws_instance.web_pub (expand)</title>
<polygon fill="none" stroke="black" points="1442.5,-324 1263.5,-324 1263.5,-288 1442.5,-288 1442.5,-324"/>
<text text-anchor="middle" x="1353" y="-302.3" font-family="Times,serif" font-size="14.00">aws_instance.web_pub</text>
</g>
<!-- [root] aws_instance.web_pub (expand)&#45;&gt;[root] aws_key_pair.mykey (expand) -->
<g id="edge9" class="edge">
<title>[root] aws_instance.web_pub (expand)&#45;&gt;[root] aws_key_pair.mykey (expand)</title>
<path fill="none" stroke="black" d="M1353,-287.7C1353,-279.98 1353,-270.71 1353,-262.11"/>
<polygon fill="black" stroke="black" points="1356.5,-262.1 1353,-252.1 1349.5,-262.1 1356.5,-262.1"/>
</g>
<!-- [root] aws_instance.web_pub (expand)&#45;&gt;[root] aws_security_group.web (expand) -->
<g id="edge10" class="edge">
<title>[root] aws_instance.web_pub (expand)&#45;&gt;[root] aws_security_group.web (expand)</title>
<path fill="none" stroke="black" d="M1267.1,-287.97C1215.32,-277.7 1149.27,-264.6 1095.81,-254"/>
<polygon fill="black" stroke="black" points="1096.47,-250.56 1085.98,-252.05 1095.11,-257.43 1096.47,-250.56"/>
</g>
<!-- [root] aws_subnet.pub_c (expand) -->
<g id="node18" class="node">
<title>[root] aws_subnet.pub_c (expand)</title>
<polygon fill="none" stroke="black" points="886,-252 740,-252 740,-216 886,-216 886,-252"/>
<text text-anchor="middle" x="813" y="-230.3" font-family="Times,serif" font-size="14.00">aws_subnet.pub_c</text>
</g>
<!-- [root] aws_instance.web_pub (expand)&#45;&gt;[root] aws_subnet.pub_c (expand) -->
<g id="edge11" class="edge">
<title>[root] aws_instance.web_pub (expand)&#45;&gt;[root] aws_subnet.pub_c (expand)</title>
<path fill="none" stroke="black" d="M1263.46,-289.34C1260.27,-288.87 1257.11,-288.42 1254,-288 1098.36,-266.86 1055.26,-275.92 896.38,-252.12"/>
<polygon fill="black" stroke="black" points="896.66,-248.62 886.25,-250.58 895.61,-255.54 896.66,-248.62"/>
</g>
<!-- [root] aws_instance.web_pub (expand)&#45;&gt;[root] data.aws_ami.amzonlinux (expand) -->
<g id="edge12" class="edge">
<title>[root] aws_instance.web_pub (expand)&#45;&gt;[root] data.aws_ami.amzonlinux (expand)</title>
<path fill="none" stroke="black" d="M1431.85,-287.97C1479.07,-277.76 1539.24,-264.76 1588.14,-254.2"/>
<polygon fill="black" stroke="black" points="1589.05,-257.58 1598.08,-252.05 1587.57,-250.74 1589.05,-257.58"/>
</g>
<!-- [root] aws_instance.web_pub (expand)&#45;&gt;[root] var.image_id -->
<g id="edge13" class="edge">
<title>[root] aws_instance.web_pub (expand)&#45;&gt;[root] var.image_id</title>
<path fill="none" stroke="black" d="M1390.18,-287.88C1410.87,-278.35 1436.8,-266.41 1458.78,-256.28"/>
<polygon fill="black" stroke="black" points="1460.32,-259.43 1467.94,-252.07 1457.39,-253.07 1460.32,-259.43"/>
</g>
<!-- [root] aws_instance.web_pub (expand)&#45;&gt;[root] var.instance_type -->
<g id="edge14" class="edge">
<title>[root] aws_instance.web_pub (expand)&#45;&gt;[root] var.instance_type</title>
<path fill="none" stroke="black" d="M1311.66,-287.88C1288.45,-278.26 1259.31,-266.19 1234.73,-256.01"/>
<polygon fill="black" stroke="black" points="1235.79,-252.66 1225.21,-252.07 1233.11,-259.13 1235.79,-252.66"/>
</g>
<!-- [root] aws_internet_gateway.tf&#45;igw (expand) -->
<g id="node4" class="node">
<title>[root] aws_internet_gateway.tf&#45;igw (expand)</title>
<polygon fill="none" stroke="black" points="590,-180 372,-180 372,-144 590,-144 590,-180"/>
<text text-anchor="middle" x="481" y="-158.3" font-family="Times,serif" font-size="14.00">aws_internet_gateway.tf&#45;igw</text>
</g>
<!-- [root] aws_vpc.tf&#45;vpc (expand) -->
<g id="node19" class="node">
<title>[root] aws_vpc.tf&#45;vpc (expand)</title>
<polygon fill="none" stroke="black" points="716,-108 596,-108 596,-72 716,-72 716,-108"/>
<text text-anchor="middle" x="656" y="-86.3" font-family="Times,serif" font-size="14.00">aws_vpc.tf&#45;vpc</text>
</g>
<!-- [root] aws_internet_gateway.tf&#45;igw (expand)&#45;&gt;[root] aws_vpc.tf&#45;vpc (expand) -->
<g id="edge15" class="edge">
<title>[root] aws_internet_gateway.tf&#45;igw (expand)&#45;&gt;[root] aws_vpc.tf&#45;vpc (expand)</title>
<path fill="none" stroke="black" d="M523.81,-143.88C547.95,-134.22 578.28,-122.09 603.81,-111.88"/>
<polygon fill="black" stroke="black" points="605.34,-115.03 613.33,-108.07 602.74,-108.53 605.34,-115.03"/>
</g>
<!-- [root] aws_key_pair.mykey (expand)&#45;&gt;[root] provider[&quot;registry.terraform.io/hashicorp/aws&quot;] -->
<g id="edge16" class="edge">
<title>[root] aws_key_pair.mykey (expand)&#45;&gt;[root] provider[&quot;registry.terraform.io/hashicorp/aws&quot;]</title>
<path fill="none" stroke="black" d="M1334.41,-215.85C1292.94,-177.6 1192.85,-85.27 1145.98,-42.05"/>
<polygon fill="black" stroke="black" points="1148.13,-39.26 1138.41,-35.06 1143.39,-44.41 1148.13,-39.26"/>
</g>
<!-- [root] aws_nat_gateway.nat (expand)&#45;&gt;[root] aws_eip.pub_a (expand) -->
<g id="edge17" class="edge">
<title>[root] aws_nat_gateway.nat (expand)&#45;&gt;[root] aws_eip.pub_a (expand)</title>
<path fill="none" stroke="black" d="M524.11,-215.92C572.88,-196.94 654.91,-166.08 727,-144 773.33,-129.81 826.24,-116.48 867.35,-106.73"/>
<polygon fill="black" stroke="black" points="868.34,-110.09 877.27,-104.4 866.74,-103.28 868.34,-110.09"/>
</g>
<!-- [root] aws_nat_gateway.nat (expand)&#45;&gt;[root] aws_internet_gateway.tf&#45;igw (expand) -->
<g id="edge18" class="edge">
<title>[root] aws_nat_gateway.nat (expand)&#45;&gt;[root] aws_internet_gateway.tf&#45;igw (expand)</title>
<path fill="none" stroke="black" d="M481,-215.7C481,-207.98 481,-198.71 481,-190.11"/>
<polygon fill="black" stroke="black" points="484.5,-190.1 481,-180.1 477.5,-190.1 484.5,-190.1"/>
</g>
<!-- [root] aws_subnet.pub_a (expand) -->
<g id="node17" class="node">
<title>[root] aws_subnet.pub_a (expand)</title>
<polygon fill="none" stroke="black" points="354,-180 208,-180 208,-144 354,-144 354,-180"/>
<text text-anchor="middle" x="281" y="-158.3" font-family="Times,serif" font-size="14.00">aws_subnet.pub_a</text>
</g>
<!-- [root] aws_nat_gateway.nat (expand)&#45;&gt;[root] aws_subnet.pub_a (expand) -->
<g id="edge19" class="edge">
<title>[root] aws_nat_gateway.nat (expand)&#45;&gt;[root] aws_subnet.pub_a (expand)</title>
<path fill="none" stroke="black" d="M432.33,-215.97C404.39,-206.19 369.1,-193.84 339.64,-183.52"/>
<polygon fill="black" stroke="black" points="340.48,-180.11 329.89,-180.11 338.17,-186.72 340.48,-180.11"/>
</g>
<!-- [root] aws_route_table.pri_a (expand) -->
<g id="node7" class="node">
<title>[root] aws_route_table.pri_a (expand)</title>
<polygon fill="none" stroke="black" points="501,-324 329,-324 329,-288 501,-288 501,-324"/>
<text text-anchor="middle" x="415" y="-302.3" font-family="Times,serif" font-size="14.00">aws_route_table.pri_a</text>
</g>
<!-- [root] aws_route_table.pri_a (expand)&#45;&gt;[root] aws_nat_gateway.nat (expand) -->
<g id="edge20" class="edge">
<title>[root] aws_route_table.pri_a (expand)&#45;&gt;[root] aws_nat_gateway.nat (expand)</title>
<path fill="none" stroke="black" d="M431.31,-287.7C439.31,-279.22 449.07,-268.86 457.82,-259.58"/>
<polygon fill="black" stroke="black" points="460.56,-261.78 464.87,-252.1 455.47,-256.98 460.56,-261.78"/>
</g>
<!-- [root] aws_route_table.pri_c (expand) -->
<g id="node8" class="node">
<title>[root] aws_route_table.pri_c (expand)</title>
<polygon fill="none" stroke="black" points="690.5,-324 519.5,-324 519.5,-288 690.5,-288 690.5,-324"/>
<text text-anchor="middle" x="605" y="-302.3" font-family="Times,serif" font-size="14.00">aws_route_table.pri_c</text>
</g>
<!-- [root] aws_route_table.pri_c (expand)&#45;&gt;[root] aws_nat_gateway.nat (expand) -->
<g id="edge21" class="edge">
<title>[root] aws_route_table.pri_c (expand)&#45;&gt;[root] aws_nat_gateway.nat (expand)</title>
<path fill="none" stroke="black" d="M574.67,-287.88C558.3,-278.64 537.92,-267.13 520.35,-257.21"/>
<polygon fill="black" stroke="black" points="521.88,-254.06 511.45,-252.19 518.44,-260.15 521.88,-254.06"/>
</g>
<!-- [root] aws_route_table.pub (expand) -->
<g id="node9" class="node">
<title>[root] aws_route_table.pub (expand)</title>
<polygon fill="none" stroke="black" points="379,-252 215,-252 215,-216 379,-216 379,-252"/>
<text text-anchor="middle" x="297" y="-230.3" font-family="Times,serif" font-size="14.00">aws_route_table.pub</text>
</g>
<!-- [root] aws_route_table.pub (expand)&#45;&gt;[root] aws_internet_gateway.tf&#45;igw (expand) -->
<g id="edge22" class="edge">
<title>[root] aws_route_table.pub (expand)&#45;&gt;[root] aws_internet_gateway.tf&#45;igw (expand)</title>
<path fill="none" stroke="black" d="M342.01,-215.88C367.5,-206.18 399.57,-193.98 426.48,-183.74"/>
<polygon fill="black" stroke="black" points="428.03,-186.9 436.13,-180.07 425.54,-180.35 428.03,-186.9"/>
</g>
<!-- [root] aws_route_table_association.pri_a (expand) -->
<g id="node10" class="node">
<title>[root] aws_route_table_association.pri_a (expand)</title>
<polygon fill="none" stroke="black" points="541,-396 283,-396 283,-360 541,-360 541,-396"/>
<text text-anchor="middle" x="412" y="-374.3" font-family="Times,serif" font-size="14.00">aws_route_table_association.pri_a</text>
</g>
<!-- [root] aws_route_table_association.pri_a (expand)&#45;&gt;[root] aws_route_table.pri_a (expand) -->
<g id="edge23" class="edge">
<title>[root] aws_route_table_association.pri_a (expand)&#45;&gt;[root] aws_route_table.pri_a (expand)</title>
<path fill="none" stroke="black" d="M412.74,-359.7C413.07,-351.98 413.47,-342.71 413.84,-334.11"/>
<polygon fill="black" stroke="black" points="417.34,-334.25 414.27,-324.1 410.34,-333.95 417.34,-334.25"/>
</g>
<!-- [root] aws_subnet.pri_a (expand) -->
<g id="node15" class="node">
<title>[root] aws_subnet.pri_a (expand)</title>
<polygon fill="none" stroke="black" points="140,-180 0,-180 0,-144 140,-144 140,-180"/>
<text text-anchor="middle" x="70" y="-158.3" font-family="Times,serif" font-size="14.00">aws_subnet.pri_a</text>
</g>
<!-- [root] aws_route_table_association.pri_a (expand)&#45;&gt;[root] aws_subnet.pri_a (expand) -->
<g id="edge24" class="edge">
<title>[root] aws_route_table_association.pri_a (expand)&#45;&gt;[root] aws_subnet.pri_a (expand)</title>
<path fill="none" stroke="black" d="M282.84,-376.25C187.04,-372.62 67.78,-360.57 36,-324 2.97,-285.99 31.54,-224.01 52.54,-189.07"/>
<polygon fill="black" stroke="black" points="55.63,-190.73 57.94,-180.39 49.69,-187.04 55.63,-190.73"/>
</g>
<!-- [root] aws_route_table_association.pri_c (expand) -->
<g id="node11" class="node">
<title>[root] aws_route_table_association.pri_c (expand)</title>
<polygon fill="none" stroke="black" points="816.5,-396 559.5,-396 559.5,-360 816.5,-360 816.5,-396"/>
<text text-anchor="middle" x="688" y="-374.3" font-family="Times,serif" font-size="14.00">aws_route_table_association.pri_c</text>
</g>
<!-- [root] aws_route_table_association.pri_c (expand)&#45;&gt;[root] aws_route_table.pri_c (expand) -->
<g id="edge25" class="edge">
<title>[root] aws_route_table_association.pri_c (expand)&#45;&gt;[root] aws_route_table.pri_c (expand)</title>
<path fill="none" stroke="black" d="M667.48,-359.7C657.13,-350.97 644.41,-340.24 633.16,-330.75"/>
<polygon fill="black" stroke="black" points="635.18,-327.88 625.28,-324.1 630.67,-333.23 635.18,-327.88"/>
</g>
<!-- [root] aws_route_table_association.pri_c (expand)&#45;&gt;[root] aws_subnet.pri_c (expand) -->
<g id="edge26" class="edge">
<title>[root] aws_route_table_association.pri_c (expand)&#45;&gt;[root] aws_subnet.pri_c (expand)</title>
<path fill="none" stroke="black" d="M694.87,-359.69C701.08,-341.32 708,-311.73 699,-288 695.03,-277.54 687.95,-267.83 680.47,-259.65"/>
<polygon fill="black" stroke="black" points="682.77,-256.99 673.27,-252.3 677.77,-261.89 682.77,-256.99"/>
</g>
<!-- [root] aws_route_table_association.pub_a (expand) -->
<g id="node12" class="node">
<title>[root] aws_route_table_association.pub_a (expand)</title>
<polygon fill="none" stroke="black" points="310.5,-324 45.5,-324 45.5,-288 310.5,-288 310.5,-324"/>
<text text-anchor="middle" x="178" y="-302.3" font-family="Times,serif" font-size="14.00">aws_route_table_association.pub_a</text>
</g>
<!-- [root] aws_route_table_association.pub_a (expand)&#45;&gt;[root] aws_route_table.pub (expand) -->
<g id="edge27" class="edge">
<title>[root] aws_route_table_association.pub_a (expand)&#45;&gt;[root] aws_route_table.pub (expand)</title>
<path fill="none" stroke="black" d="M207.11,-287.88C222.67,-278.72 242.02,-267.34 258.78,-257.48"/>
<polygon fill="black" stroke="black" points="260.93,-260.28 267.78,-252.19 257.38,-254.24 260.93,-260.28"/>
</g>
<!-- [root] aws_route_table_association.pub_a (expand)&#45;&gt;[root] aws_subnet.pub_a (expand) -->
<g id="edge28" class="edge">
<title>[root] aws_route_table_association.pub_a (expand)&#45;&gt;[root] aws_subnet.pub_a (expand)</title>
<path fill="none" stroke="black" d="M180.07,-287.79C183.09,-268.7 190.15,-237.72 206,-216 214.69,-204.08 226.9,-193.85 238.95,-185.65"/>
<polygon fill="black" stroke="black" points="241.14,-188.41 247.64,-180.04 237.34,-182.52 241.14,-188.41"/>
</g>
<!-- [root] aws_route_table_association.pub_c (expand) -->
<g id="node13" class="node">
<title>[root] aws_route_table_association.pub_c (expand)</title>
<polygon fill="none" stroke="black" points="1011,-324 747,-324 747,-288 1011,-288 1011,-324"/>
<text text-anchor="middle" x="879" y="-302.3" font-family="Times,serif" font-size="14.00">aws_route_table_association.pub_c</text>
</g>
<!-- [root] aws_route_table_association.pub_c (expand)&#45;&gt;[root] aws_route_table.pub (expand) -->
<g id="edge29" class="edge">
<title>[root] aws_route_table_association.pub_c (expand)&#45;&gt;[root] aws_route_table.pub (expand)</title>
<path fill="none" stroke="black" d="M746.82,-291.89C630.74,-280.18 469.43,-263.36 389.55,-252.14"/>
<polygon fill="black" stroke="black" points="389.69,-248.63 379.29,-250.67 388.69,-255.56 389.69,-248.63"/>
</g>
<!-- [root] aws_route_table_association.pub_c (expand)&#45;&gt;[root] aws_subnet.pub_c (expand) -->
<g id="edge30" class="edge">
<title>[root] aws_route_table_association.pub_c (expand)&#45;&gt;[root] aws_subnet.pub_c (expand)</title>
<path fill="none" stroke="black" d="M862.69,-287.7C854.69,-279.22 844.93,-268.86 836.18,-259.58"/>
<polygon fill="black" stroke="black" points="838.53,-256.98 829.13,-252.1 833.44,-261.78 838.53,-256.98"/>
</g>
<!-- [root] aws_security_group.web (expand)&#45;&gt;[root] aws_vpc.tf&#45;vpc (expand) -->
<g id="edge31" class="edge">
<title>[root] aws_security_group.web (expand)&#45;&gt;[root] aws_vpc.tf&#45;vpc (expand)</title>
<path fill="none" stroke="black" d="M1072.79,-215.91C1090.91,-208.04 1108.22,-196.6 1119,-180 1127.71,-166.58 1129.65,-155.94 1119,-144 1106.09,-129.52 852.61,-106.99 726.3,-96.6"/>
<polygon fill="black" stroke="black" points="726.58,-93.11 716.33,-95.78 726.01,-100.08 726.58,-93.11"/>
</g>
<!-- [root] var.server_port -->
<g id="node24" class="node">
<title>[root] var.server_port</title>
<polygon fill="none" stroke="black" points="855.5,-180 736.5,-180 736.5,-144 861.5,-144 861.5,-174 855.5,-180"/>
<polyline fill="none" stroke="black" points="855.5,-180 855.5,-174 "/>
<polyline fill="none" stroke="black" points="861.5,-174 855.5,-174 "/>
<text text-anchor="middle" x="799" y="-158.3" font-family="Times,serif" font-size="14.00">var.server_port</text>
</g>
<!-- [root] aws_security_group.web (expand)&#45;&gt;[root] var.server_port -->
<g id="edge32" class="edge">
<title>[root] aws_security_group.web (expand)&#45;&gt;[root] var.server_port</title>
<path fill="none" stroke="black" d="M951.09,-215.97C923,-206.19 887.54,-193.84 857.93,-183.52"/>
<polygon fill="black" stroke="black" points="858.73,-180.09 848.13,-180.11 856.43,-186.71 858.73,-180.09"/>
</g>
<!-- [root] var.web_security_group_name -->
<g id="node25" class="node">
<title>[root] var.web_security_group_name</title>
<polygon fill="none" stroke="black" points="1104.5,-180 879.5,-180 879.5,-144 1110.5,-144 1110.5,-174 1104.5,-180"/>
<polyline fill="none" stroke="black" points="1104.5,-180 1104.5,-174 "/>
<polyline fill="none" stroke="black" points="1110.5,-174 1104.5,-174 "/>
<text text-anchor="middle" x="995" y="-158.3" font-family="Times,serif" font-size="14.00">var.web_security_group_name</text>
</g>
<!-- [root] aws_security_group.web (expand)&#45;&gt;[root] var.web_security_group_name -->
<g id="edge33" class="edge">
<title>[root] aws_security_group.web (expand)&#45;&gt;[root] var.web_security_group_name</title>
<path fill="none" stroke="black" d="M998.76,-215.7C998.21,-207.98 997.55,-198.71 996.94,-190.11"/>
<polygon fill="black" stroke="black" points="1000.43,-189.83 996.22,-180.1 993.44,-190.33 1000.43,-189.83"/>
</g>
<!-- [root] aws_subnet.pri_a (expand)&#45;&gt;[root] aws_vpc.tf&#45;vpc (expand) -->
<g id="edge34" class="edge">
<title>[root] aws_subnet.pri_a (expand)&#45;&gt;[root] aws_vpc.tf&#45;vpc (expand)</title>
<path fill="none" stroke="black" d="M140.27,-151.54C159.32,-149.03 179.94,-146.36 199,-144 335.81,-127.05 495.88,-108.87 585.65,-98.81"/>
<polygon fill="black" stroke="black" points="586.16,-102.28 595.71,-97.69 585.39,-95.32 586.16,-102.28"/>
</g>
<!-- [root] aws_subnet.pri_c (expand)&#45;&gt;[root] aws_vpc.tf&#45;vpc (expand) -->
<g id="edge35" class="edge">
<title>[root] aws_subnet.pri_c (expand)&#45;&gt;[root] aws_vpc.tf&#45;vpc (expand)</title>
<path fill="none" stroke="black" d="M652.48,-215.87C653.16,-191.67 654.42,-147.21 655.23,-118.39"/>
<polygon fill="black" stroke="black" points="658.73,-118.28 655.52,-108.19 651.74,-118.09 658.73,-118.28"/>
</g>
<!-- [root] aws_subnet.pub_a (expand)&#45;&gt;[root] aws_vpc.tf&#45;vpc (expand) -->
<g id="edge36" class="edge">
<title>[root] aws_subnet.pub_a (expand)&#45;&gt;[root] aws_vpc.tf&#45;vpc (expand)</title>
<path fill="none" stroke="black" d="M354.3,-145.71C357.24,-145.13 360.15,-144.55 363,-144 439.03,-129.24 526.43,-113.61 585.85,-103.17"/>
<polygon fill="black" stroke="black" points="586.63,-106.59 595.87,-101.41 585.42,-99.69 586.63,-106.59"/>
</g>
<!-- [root] aws_subnet.pub_c (expand)&#45;&gt;[root] aws_vpc.tf&#45;vpc (expand) -->
<g id="edge37" class="edge">
<title>[root] aws_subnet.pub_c (expand)&#45;&gt;[root] aws_vpc.tf&#45;vpc (expand)</title>
<path fill="none" stroke="black" d="M779.31,-215.83C762.64,-206.47 742.75,-193.95 727,-180 705.8,-161.22 686.08,-135.58 672.84,-116.64"/>
<polygon fill="black" stroke="black" points="675.59,-114.47 667.05,-108.2 669.82,-118.43 675.59,-114.47"/>
</g>
<!-- [root] aws_vpc.tf&#45;vpc (expand)&#45;&gt;[root] provider[&quot;registry.terraform.io/hashicorp/aws&quot;] -->
<g id="edge38" class="edge">
<title>[root] aws_vpc.tf&#45;vpc (expand)&#45;&gt;[root] provider[&quot;registry.terraform.io/hashicorp/aws&quot;]</title>
<path fill="none" stroke="black" d="M716.31,-79.92C795.5,-68 935.33,-46.95 1028.09,-32.99"/>
<polygon fill="black" stroke="black" points="1028.67,-36.44 1038.03,-31.49 1027.62,-29.52 1028.67,-36.44"/>
</g>
<!-- [root] data.aws_ami.amzonlinux (expand)&#45;&gt;[root] provider[&quot;registry.terraform.io/hashicorp/aws&quot;] -->
<g id="edge39" class="edge">
<title>[root] data.aws_ami.amzonlinux (expand)&#45;&gt;[root] provider[&quot;registry.terraform.io/hashicorp/aws&quot;]</title>
<path fill="none" stroke="black" d="M1632.44,-215.85C1529.49,-176.22 1275.79,-78.58 1169.29,-37.59"/>
<polygon fill="black" stroke="black" points="1170.35,-34.24 1159.76,-33.92 1167.83,-40.78 1170.35,-34.24"/>
</g>
<!-- [root] output.private_ip (expand) -->
<g id="node26" class="node">
<title>[root] output.private_ip (expand)</title>
<ellipse fill="none" stroke="black" cx="1160" cy="-450" rx="163.27" ry="18"/>
<text text-anchor="middle" x="1160" y="-446.3" font-family="Times,serif" font-size="14.00">[root] output.private_ip (expand)</text>
</g>
<!-- [root] output.private_ip (expand)&#45;&gt;[root] aws_instance.web_pri (expand) -->
<g id="edge40" class="edge">
<title>[root] output.private_ip (expand)&#45;&gt;[root] aws_instance.web_pri (expand)</title>
<path fill="none" stroke="black" d="M1159.88,-431.87C1159.71,-407.67 1159.4,-363.21 1159.19,-334.39"/>
<polygon fill="black" stroke="black" points="1162.69,-334.16 1159.12,-324.19 1155.69,-334.21 1162.69,-334.16"/>
</g>
<!-- [root] output.public_ip (expand) -->
<g id="node27" class="node">
<title>[root] output.public_ip (expand)</title>
<ellipse fill="none" stroke="black" cx="1499" cy="-450" rx="157.87" ry="18"/>
<text text-anchor="middle" x="1499" y="-446.3" font-family="Times,serif" font-size="14.00">[root] output.public_ip (expand)</text>
</g>
<!-- [root] output.public_ip (expand)&#45;&gt;[root] aws_instance.web_pub (expand) -->
<g id="edge41" class="edge">
<title>[root] output.public_ip (expand)&#45;&gt;[root] aws_instance.web_pub (expand)</title>
<path fill="none" stroke="black" d="M1481.39,-431.87C1455.63,-406.82 1407.55,-360.05 1378.09,-331.41"/>
<polygon fill="black" stroke="black" points="1380.28,-328.65 1370.67,-324.19 1375.4,-333.67 1380.28,-328.65"/>
</g>
<!-- [root] provider[&quot;registry.terraform.io/hashicorp/aws&quot;] (close) -->
<g id="node28" class="node">
<title>[root] provider[&quot;registry.terraform.io/hashicorp/aws&quot;] (close)</title>
<ellipse fill="none" stroke="black" cx="687" cy="-450" rx="291.65" ry="18"/>
<text text-anchor="middle" x="687" y="-446.3" font-family="Times,serif" font-size="14.00">[root] provider[&quot;registry.terraform.io/hashicorp/aws&quot;] (close)</text>
</g>
<!-- [root] provider[&quot;registry.terraform.io/hashicorp/aws&quot;] (close)&#45;&gt;[root] aws_instance.web_pri (expand) -->
<g id="edge42" class="edge">
<title>[root] provider[&quot;registry.terraform.io/hashicorp/aws&quot;] (close)&#45;&gt;[root] aws_instance.web_pri (expand)</title>
<path fill="none" stroke="black" d="M742.53,-432.29C829.85,-406.02 998.93,-355.16 1092.56,-326.99"/>
<polygon fill="black" stroke="black" points="1093.64,-330.32 1102.21,-324.08 1091.63,-323.61 1093.64,-330.32"/>
</g>
<!-- [root] provider[&quot;registry.terraform.io/hashicorp/aws&quot;] (close)&#45;&gt;[root] aws_instance.web_pub (expand) -->
<g id="edge43" class="edge">
<title>[root] provider[&quot;registry.terraform.io/hashicorp/aws&quot;] (close)&#45;&gt;[root] aws_instance.web_pub (expand)</title>
<path fill="none" stroke="black" d="M764.43,-432.62C813.82,-422.17 879.18,-408.31 937,-396 1049.74,-371.99 1179.63,-344.18 1263.86,-326.12"/>
<polygon fill="black" stroke="black" points="1264.6,-329.54 1273.65,-324.02 1263.14,-322.7 1264.6,-329.54"/>
</g>
<!-- [root] provider[&quot;registry.terraform.io/hashicorp/aws&quot;] (close)&#45;&gt;[root] aws_route_table_association.pri_a (expand) -->
<g id="edge44" class="edge">
<title>[root] provider[&quot;registry.terraform.io/hashicorp/aws&quot;] (close)&#45;&gt;[root] aws_route_table_association.pri_a (expand)</title>
<path fill="none" stroke="black" d="M621.83,-432.41C581.98,-422.27 530.8,-409.24 488.97,-398.59"/>
<polygon fill="black" stroke="black" points="489.65,-395.15 479.09,-396.08 487.92,-401.94 489.65,-395.15"/>
</g>
<!-- [root] provider[&quot;registry.terraform.io/hashicorp/aws&quot;] (close)&#45;&gt;[root] aws_route_table_association.pri_c (expand) -->
<g id="edge45" class="edge">
<title>[root] provider[&quot;registry.terraform.io/hashicorp/aws&quot;] (close)&#45;&gt;[root] aws_route_table_association.pri_c (expand)</title>
<path fill="none" stroke="black" d="M687.25,-431.7C687.36,-423.98 687.49,-414.71 687.61,-406.11"/>
<polygon fill="black" stroke="black" points="691.11,-406.15 687.76,-396.1 684.11,-406.05 691.11,-406.15"/>
</g>
<!-- [root] provider[&quot;registry.terraform.io/hashicorp/aws&quot;] (close)&#45;&gt;[root] aws_route_table_association.pub_a (expand) -->
<g id="edge46" class="edge">
<title>[root] provider[&quot;registry.terraform.io/hashicorp/aws&quot;] (close)&#45;&gt;[root] aws_route_table_association.pub_a (expand)</title>
<path fill="none" stroke="black" d="M500.47,-436.15C410.79,-427.76 314.19,-414.8 274,-396 242.74,-381.38 214.79,-352.79 197.22,-331.95"/>
<polygon fill="black" stroke="black" points="199.84,-329.62 190.79,-324.11 194.43,-334.06 199.84,-329.62"/>
</g>
<!-- [root] provider[&quot;registry.terraform.io/hashicorp/aws&quot;] (close)&#45;&gt;[root] aws_route_table_association.pub_c (expand) -->
<g id="edge47" class="edge">
<title>[root] provider[&quot;registry.terraform.io/hashicorp/aws&quot;] (close)&#45;&gt;[root] aws_route_table_association.pub_c (expand)</title>
<path fill="none" stroke="black" d="M755.99,-432.4C779.69,-424.26 805.21,-412.54 825,-396 845.05,-379.25 859.68,-353.03 868.61,-333.38"/>
<polygon fill="black" stroke="black" points="871.88,-334.63 872.65,-324.06 865.46,-331.85 871.88,-334.63"/>
</g>
<!-- [root] root -->
<g id="node29" class="node">
<title>[root] root</title>
<ellipse fill="none" stroke="black" cx="1160" cy="-522" rx="58.49" ry="18"/>
<text text-anchor="middle" x="1160" y="-518.3" font-family="Times,serif" font-size="14.00">[root] root</text>
</g>
<!-- [root] root&#45;&gt;[root] output.private_ip (expand) -->
<g id="edge48" class="edge">
<title>[root] root&#45;&gt;[root] output.private_ip (expand)</title>
<path fill="none" stroke="black" d="M1160,-503.7C1160,-495.98 1160,-486.71 1160,-478.11"/>
<polygon fill="black" stroke="black" points="1163.5,-478.1 1160,-468.1 1156.5,-478.1 1163.5,-478.1"/>
</g>
<!-- [root] root&#45;&gt;[root] output.public_ip (expand) -->
<g id="edge49" class="edge">
<title>[root] root&#45;&gt;[root] output.public_ip (expand)</title>
<path fill="none" stroke="black" d="M1207.14,-511.27C1261.13,-500.12 1350.58,-481.65 1416.25,-468.09"/>
<polygon fill="black" stroke="black" points="1417.09,-471.49 1426.17,-466.04 1415.67,-464.63 1417.09,-471.49"/>
</g>
<!-- [root] root&#45;&gt;[root] provider[&quot;registry.terraform.io/hashicorp/aws&quot;] (close) -->
<g id="edge50" class="edge">
<title>[root] root&#45;&gt;[root] provider[&quot;registry.terraform.io/hashicorp/aws&quot;] (close)</title>
<path fill="none" stroke="black" d="M1108.48,-513.38C1035.79,-502.62 901.13,-482.69 803.54,-468.25"/>
<polygon fill="black" stroke="black" points="804.02,-464.78 793.62,-466.78 803,-471.7 804.02,-464.78"/>
</g>
</g>
</svg>
